<svg width="234" height="234" viewBox="0 0 234 234" version="1.1" xmlns="http://www.w3.org/2000/svg" xmlns:xlink="http://www.w3.org/1999/xlink">
<title>mark</title>
<desc>Created using Figma</desc>
<g id="Canvas" transform="translate(-1524 512)">
<g id="mark">
<g id="swirl">
<use xlink:href="#path0_fill" transform="translate(1524 -512)" fill="#56676E"/>
<use xlink:href="#path1_fill" transform="translate(1524 -512)" fill="#56676E"/>
<use xlink:href="#path2_fill" transform="translate(1524 -512)" fill="#56676E"/>
<use xlink:href="#path3_fill" transform="translate(1524 -512)" fill="#56676E"/>
</g>
<g id="center">
<use xlink:href="#path4_fill" transform="translate(1609.22 -427.907)" fill="#4E4F50"/>
</g>
</g>
</g>
<defs>
<path id="path0_fill" d="M 226.574 76.1549C 234.188 191.599 112.553 175.748 112.553 175.748C 196.089 176.93 231.316 18.6215 95.7822 2.01264C 102.779 0.701118 109.881 0.0274654 117 0C 167.276 0 210.02 31.718 226.574 76.1549Z"/>
<path id="path1_fill" d="M 174.642 123.721C 174.642 123.721 203.369 2.82238 74.0579 8.2224C 30.6964 25.3207 0 67.4378 0 116.796C 0.0403472 122.111 0.442034 127.417 1.20256 132.678C 28.4166 -4.10339 183.457 40.1955 174.642 123.721Z"/>
<path id="path2_fill" d="M 7.75667 159.36C 5.88891 27.1928 127.312 61.0431 127.312 61.0431C 43.9692 48.91 -7.81451 200.985 128.423 233.419C 124.634 233.792 120.792 234 116.901 234C 116.801 234 116.704 233.992 116.607 233.984C 116.51 233.977 116.412 233.969 116.314 233.969C 111.154 233.909 106.004 233.51 100.896 232.774C 99.3888 232.565 97.8838 232.347 96.3945 232.086C 91.4715 231.255 86.6076 230.107 81.8327 228.649C 81.2754 228.475 80.7362 228.267 80.1974 228.059L 80.1907 228.057L 80.1807 228.053C 79.7665 227.893 79.3526 227.734 78.9299 227.59C 74.9473 226.224 71.0422 224.642 67.2321 222.851C 66.9403 222.713 66.6476 222.576 66.3544 222.438C 65.3379 221.961 64.3178 221.482 63.3194 220.969C 58.892 218.713 54.6137 216.177 50.5104 213.376C 50.1848 213.151 49.8702 212.909 49.5557 212.667L 49.5403 212.655L 49.535 212.651C 49.2715 212.449 49.008 212.247 48.737 212.054C 44.8583 209.273 41.1527 206.258 37.6415 203.027C 37.4354 202.837 37.2273 202.65 37.0188 202.464L 36.9838 202.432L 36.9809 202.43L 36.9634 202.414C 36.6581 202.14 36.3529 201.867 36.0533 201.584C 23.6403 189.746 13.9809 175.332 7.75667 159.36Z"/>
<path id="path3_fill" d="M 157.756 226.181C 27.3422 225.14 59.8799 105.464 59.8799 105.464C 46.5778 188.446 199.003 241.48 233.457 106.081C 233.778 109.617 234 113.187 234 116.806C 234 117.248 233.969 117.683 233.938 118.117L 233.937 118.131C 233.909 118.517 233.881 118.904 233.875 119.295C 233.804 122.472 233.71 125.643 233.395 128.752C 228.825 173.696 198.674 210.976 157.756 226.181Z"/>
<path id="path4_fill" d="M 65.5447 32.7152C 65.5447 39.1861 63.6224 45.5116 60.0209 50.8918C 56.4193 56.272 51.3004 60.4652 45.3114 62.941C 39.3224 65.4169 32.7325 66.0641 26.375 64.8009C 20.0175 63.5378 14.178 60.4209 9.59512 55.8446C 5.01224 51.2682 1.89181 45.438 0.628456 39.0912C -0.634894 32.7444 0.0155957 26.1661 2.49766 20.1884C 4.97972 14.2107 9.18185 9.10198 14.5726 5.50844C 19.9634 1.9149 26.3006 -0.00205673 32.7828 3.24765e-06C 41.473 0.00207462 49.8065 3.44983 55.9504 9.58497C 62.0943 15.7201 65.5454 24.0402 65.5447 32.7152L 65.5447 32.7152Z"/>
</defs>
</svg>
